<svg width="119.000000" height="26.686279" viewBox="0 0 119 26.6863" fill="none" xmlns="http://www.w3.org/2000/svg" xmlns:xlink="http://www.w3.org/1999/xlink">
	<path id="Logo" d="M6 6C6 2.68994 8.68152 0 12 0C15.3185 0 18 2.68994 18 6L15 6C15 4.34916 13.6509 3 12 3C10.3491 3 9 4.34916 9 6L6 6ZM37.9775 21.3952C35.8678 21.3952 34.135 20.8897 32.7794 19.8786L32.7793 19.8785C32.5596 19.7146 32.3499 19.5375 32.15 19.3471C31.9731 19.1763 31.8073 18.9966 31.6522 18.8079L31.6494 18.8045L31.6493 18.8043C30.5498 17.464 30 15.6726 30 13.4303L30 8.65127C30 6.40219 30.5531 4.61413 31.6592 3.28708L31.6593 3.28704C31.8123 3.1035 31.9758 2.92877 32.15 2.76287C32.3712 2.54914 32.6047 2.3519 32.8502 2.17116L32.8503 2.17107L32.8516 2.1702C34.1964 1.18092 35.905 0.686279 37.9775 0.686279C40.1361 0.686279 41.8567 1.21626 43.1394 2.27622C43.3024 2.41091 43.4583 2.55416 43.6072 2.70597C43.8262 2.92317 44.0273 3.15383 44.2106 3.39793L44.2107 3.39802C45.1473 4.64585 45.6157 6.24522 45.6157 8.19613L45.6157 8.3668L41.9381 8.3668L41.9381 8.08234C41.9381 7.13645 41.7245 6.32556 41.2972 5.64968L41.297 5.64925L41.2969 5.64914C41.1931 5.48507 41.0769 5.32896 40.948 5.18081C40.8711 5.08985 40.7892 5.00434 40.7023 4.92428L40.701 4.92317C40.0631 4.33636 39.1553 4.04295 37.9775 4.04295C36.9766 4.04295 36.1382 4.27736 35.4625 4.74619C35.2471 4.89568 35.0481 5.069 34.8657 5.26615C34.7917 5.3461 34.7214 5.42888 34.6548 5.51448C34.041 6.30198 33.7341 7.32861 33.7341 8.59438L33.7341 13.4872C33.7341 14.6965 34.022 15.6959 34.5977 16.4856L34.5978 16.4858C34.681 16.6 34.7704 16.7099 34.8657 16.8154C35.6201 17.6308 36.6573 18.0386 37.9775 18.0386C39.3167 18.0386 40.3068 17.6593 40.948 16.9007C41.108 16.7121 41.2487 16.5124 41.37 16.3015L41.3706 16.3005C41.7489 15.6421 41.9381 14.875 41.9381 13.9992L41.9381 13.4872L45.6157 13.4872L45.6157 13.8854C45.6157 15.8256 45.1525 17.4247 44.2261 18.6827L44.2238 18.6858C44.037 18.939 43.8314 19.1784 43.6072 19.404C43.4781 19.5337 43.3438 19.6571 43.2041 19.7742L43.2041 19.7743C41.9148 20.8549 40.1726 21.3952 37.9775 21.3952ZM89.2612 5.2377C88.62 5.2377 88.073 5.02909 87.6205 4.61188C87.4906 4.48705 87.3802 4.35034 87.2893 4.20174L87.2892 4.20146C87.0763 3.85344 86.9697 3.44028 86.9697 2.96199C86.9697 2.48359 87.0763 2.07037 87.2893 1.72232L87.2893 1.72223L87.2896 1.72181C87.3805 1.57337 87.4907 1.4368 87.6205 1.3121C88.073 0.894886 88.62 0.686279 89.2612 0.686279C89.9213 0.686279 90.4683 0.894886 90.902 1.3121C91.3357 1.72931 91.5526 2.27928 91.5526 2.96199C91.5526 3.6447 91.3357 4.19467 90.902 4.61188C90.4683 5.02909 89.9213 5.2377 89.2612 5.2377ZM47.8813 20.997L47.8813 1.08453L51.4458 1.08453L51.4458 20.997L47.8813 20.997ZM96.4229 20.997L96.4229 9.84602L92.8584 9.84602L92.8584 6.88759L96.4229 6.88759L96.4229 4.27052C96.4229 3.30335 96.7058 2.53529 97.2716 1.96637C97.8562 1.37848 98.6106 1.08453 99.5347 1.08453L103.212 1.08453L103.212 4.04295L100.779 4.04295C100.251 4.04295 99.9873 4.32742 99.9873 4.89635L99.9873 6.88759L103.665 6.88759L103.665 9.84602L99.9873 9.84602L99.9873 20.997L96.4229 20.997ZM0 12C0 8.68995 2.68152 6 6 6L6 9C4.34912 9 3 10.3492 3 12C3 13.6508 4.34912 15 6 15L6 18C2.68152 18 0 15.3184 0 12ZM21 12C21 10.3492 19.6509 9 18 9L18 6C21.3185 6 24 8.68995 24 12C24 15.3184 21.3185 18 18 18L18 15C19.6509 15 21 13.6508 21 12ZM17.5978 12C17.5978 15.0838 15.1006 17.5978 12 17.5978C8.89941 17.5978 6.40222 15.0838 6.40222 12C6.40222 8.89944 8.89941 6.40224 12 6.40224C15.1006 6.40224 17.5978 8.89944 17.5978 12ZM61.1818 21.3952C59.7861 21.3952 58.532 21.1108 57.4193 20.5419C56.3066 19.9729 55.4296 19.148 54.7883 18.067C54.1472 16.9861 53.8265 15.687 53.8265 14.1699L53.8265 13.7147C53.8265 12.1976 54.1472 10.8985 54.7883 9.81757C55.1208 9.25718 55.5166 8.7656 55.9757 8.34282C56.4022 7.95008 56.8834 7.61672 57.4193 7.34274C58.532 6.77381 59.7861 6.48934 61.1818 6.48934C62.5774 6.48934 63.8315 6.77381 64.9442 7.34274C66.0569 7.91166 66.934 8.73661 67.5752 9.81757C68.2163 10.8985 68.537 12.1976 68.537 13.7147L68.537 14.1699C68.537 15.687 68.2163 16.9861 67.5752 18.067C66.934 19.148 66.0569 19.9729 64.9442 20.5419C64.9204 20.554 64.8966 20.566 64.8727 20.5779L64.8705 20.5791L64.8704 20.5791C63.776 21.1232 62.5465 21.3952 61.1818 21.3952ZM70.937 20.997L70.937 6.88759L74.4448 6.88759L74.4448 8.73661L74.9541 8.73661C75.1804 8.24354 75.6047 7.77891 76.2271 7.34274C76.8495 6.88759 77.7925 6.66002 79.056 6.66002C80.0449 6.66002 80.9183 6.8693 81.676 7.28786L81.6764 7.28803L81.6765 7.28809L81.6782 7.28903C81.7578 7.33307 81.8362 7.37941 81.9132 7.42807C82.743 7.92114 83.3843 8.61334 83.8369 9.50466C84.2896 10.377 84.5159 11.4011 84.5159 12.5769L84.5159 20.997L80.9514 20.997L80.9514 12.8613C80.9514 11.7993 80.6874 11.0028 80.1593 10.4718C79.6501 9.94084 78.9146 9.67534 77.9528 9.67534C77.2076 9.67534 76.5763 9.84691 76.0587 10.1901C75.8164 10.3507 75.5991 10.5489 75.4067 10.7847C74.8032 11.5054 74.5015 12.52 74.5015 13.8285L74.5015 20.997L70.937 20.997ZM87.479 20.997L87.479 6.88759L91.0435 6.88759L91.0435 20.997L87.479 20.997ZM107.062 26.6863L107.062 23.5572L114.7 23.5572C115.228 23.5572 115.492 23.2727 115.492 22.7038L115.492 19.148L114.983 19.148C114.832 19.4704 114.596 19.7928 114.276 20.1152C113.955 20.4376 113.521 20.7031 112.974 20.9117C112.427 21.1203 111.73 21.2246 110.881 21.2246C109.787 21.2246 108.825 20.978 107.995 20.485C107.185 19.9729 106.553 19.2713 106.1 18.3799C105.647 17.4886 105.421 16.4645 105.421 15.3077L105.421 6.88759L108.986 6.88759L108.986 15.0233C108.986 16.0853 109.24 16.8818 109.749 17.4128C110.277 17.9438 111.022 18.2093 111.984 18.2093C113.078 18.2093 113.927 17.8489 114.53 17.1283C115.134 16.3887 115.436 15.3646 115.436 14.0561L115.436 6.88759L119 6.88759L119 23.5003C119 24.4675 118.717 25.2355 118.151 25.8044C117.586 26.3923 116.831 26.6863 115.888 26.6863L107.062 26.6863ZM9.20117 12C9.20117 13.5419 10.4581 14.7989 12 14.7989C13.5419 14.7989 14.7988 13.5419 14.7988 12C14.7988 10.4581 13.5419 9.20112 12 9.20112C10.4581 9.20112 9.20117 10.4581 9.20117 12ZM61.1818 18.2093C62.2756 18.2093 63.1809 17.8584 63.8976 17.1567C63.9594 17.0945 64.0186 17.03 64.0752 16.9633L64.0754 16.9629C64.6735 16.2567 64.9725 15.2972 64.9725 14.0845L64.9725 13.8001C64.9725 12.5818 64.6708 11.627 64.0671 10.9358L64.0664 10.9349C64.0125 10.8733 63.9562 10.8138 63.8976 10.7563C63.1997 10.0357 62.2944 9.67534 61.1818 9.67534C60.0879 9.67534 59.1826 10.0357 58.4659 10.7563C58.407 10.814 58.3505 10.8739 58.2964 10.9359C57.6927 11.6271 57.391 12.5818 57.391 13.8001L57.391 14.0845C57.391 15.2972 57.6901 16.2567 58.2881 16.9629L58.2883 16.9633L58.2885 16.9634L58.2887 16.9637C58.3451 17.0303 58.4043 17.0946 58.4659 17.1567C59.1826 17.8584 60.0879 18.2093 61.1818 18.2093ZM9 18C9 19.6508 10.3491 21 12 21C13.6509 21 15 19.6508 15 18L18 18C18 21.3184 15.3185 24 12 24C8.68152 24 6 21.3184 6 18L9 18Z" clip-rule="evenodd" fill="#282828" fill-opacity="1.000000" fill-rule="evenodd"/>
</svg>
