<svg width="97.739624" height="30.511780" viewBox="0 0 97.7396 30.5118" fill="none" xmlns="http://www.w3.org/2000/svg" xmlns:xlink="http://www.w3.org/1999/xlink">
	<desc>
			Created with Pixso.
	</desc>
	<defs/>
	<path id="Union" d="M16.9835 22.7477L8.44666 22.7477L8.44666 30.3819L0 30.3819L0 0L17.0371 0C18.5621 0 19.7529 1.22382 19.7529 2.73596L19.7529 20.0079C19.754 20.3676 19.6832 20.7238 19.5446 21.0563C19.4059 21.3889 19.202 21.691 18.9447 21.9456C18.6874 22.2001 18.3817 22.402 18.0452 22.5397C17.7086 22.6773 17.3479 22.748 16.9835 22.7477ZM32.5002 26.7301C31.7262 26.7112 31.0692 26.0847 31.0692 25.3101L31.0708 0L22.6202 0L22.6202 27.8988C22.6202 29.2668 23.7423 30.3819 25.1205 30.3819L39.8906 30.3819C41.2765 30.3819 42.3855 29.2661 42.3855 27.8988L42.3855 0L33.9419 0L33.9351 25.3101C33.9358 26.0847 33.2772 26.7112 32.5002 26.7301ZM73.5847 0L48.0038 0C47.6422 0.000610352 47.2843 0.0715332 46.9506 0.208801C46.6167 0.346069 46.3136 0.546936 46.0586 0.799927C45.8035 1.05292 45.6014 1.35303 45.464 1.68317C45.3264 2.01331 45.2562 2.36694 45.2573 2.72388L45.2573 30.3819L53.7163 30.3819L53.7163 5.01294C53.7173 4.82874 53.755 4.64655 53.8275 4.47675C53.8999 4.30701 54.0055 4.15295 54.1382 4.02356C54.271 3.8941 54.4283 3.79175 54.6012 3.72241C54.774 3.65302 54.9591 3.61798 55.1458 3.61926C55.9351 3.61926 56.5682 4.22021 56.5867 4.99103L56.5867 30.3826L65.0088 30.3826L65.0088 4.9903C65.0211 4.21948 65.6528 3.61853 66.4413 3.61853C67.2222 3.61853 67.8677 4.23456 67.8738 5.01221L67.8738 30.3819L76.3335 30.3819L76.3335 2.72388C76.3344 2.36688 76.2638 2.01318 76.1261 1.68298C75.9884 1.35284 75.7861 1.05273 75.5309 0.799805C75.2755 0.546814 74.9723 0.346008 74.6384 0.20874C74.3044 0.0715332 73.9464 0.000610352 73.5847 0ZM89.1399 22.8986L89.1399 30.5118L97.7396 30.5118L97.7396 2.90765C97.7407 2.55121 97.6691 2.19806 97.5288 1.86841C97.3885 1.53876 97.1825 1.23907 96.9224 0.986572C96.6622 0.73407 96.3531 0.53363 96.0129 0.39679C95.6726 0.259949 95.3077 0.189392 94.9393 0.189087L80.4148 0.189087C78.871 0.189087 77.6168 1.4007 77.6168 2.90765L77.6168 30.5118L86.2134 30.5118L86.2134 22.8986L89.1399 22.8986ZM11.3124 5.065C11.3151 4.87732 11.2802 4.69098 11.2097 4.5166C11.1392 4.34229 11.0345 4.18335 10.9019 4.04895C10.769 3.91461 10.6107 3.80743 10.4358 3.73352C10.261 3.65967 10.0731 3.62061 9.88293 3.61853L8.44666 3.61853L8.44666 18.9858L9.88293 18.9858C10.6272 18.9858 11.3193 18.4014 11.3124 17.5581L11.3124 5.065ZM89.1399 5.18097L89.1399 19.1439L86.2134 19.1439L86.2134 5.20282C86.2194 4.83252 86.3757 4.47937 86.6488 4.21979C86.9218 3.96014 87.2896 3.815 87.6724 3.81561C88.4747 3.81561 89.1189 4.40936 89.1399 5.18097Z" clip-rule="evenodd" fill="#9D9FA2" fill-opacity="1.000000" fill-rule="evenodd"/>
</svg>
