<svg width="113.588623" height="38.222229" viewBox="0 0 113.589 38.2222" fill="none" xmlns="http://www.w3.org/2000/svg" xmlns:xlink="http://www.w3.org/1999/xlink">
	<desc>
			Created with Pixso.
	</desc>
	<defs/>
	<path id="Union" d="M94.48 0C95.4658 0 96.5347 0.383179 97.3011 1.15015L112.448 16.3511C113.969 17.8712 113.969 20.4183 112.448 21.9385L97.3011 37.0982C96.5341 37.8652 95.4658 38.2484 94.5074 38.2208L19.0717 38.2208C18.099 38.2208 17.0582 37.797 16.3324 37.0707L1.18457 21.9654C-0.376343 20.4183 -0.403931 17.8981 1.1571 16.3505L16.2911 1.15015C17.0308 0.424438 18.099 0 19.0717 0L94.48 0ZM93.7393 35.9481C94.6438 35.9481 95.5477 35.6187 96.2322 34.9337L109.585 21.596C110.237 20.9437 110.603 20.0596 110.603 19.1379C110.603 18.2162 110.237 17.3322 109.585 16.6799L96.2322 3.31409C95.5477 2.64276 94.6162 2.30084 93.7393 2.27338L19.5786 2.27338C18.7017 2.27338 17.7703 2.64337 17.1132 3.28662L3.76001 16.6523C2.40417 18.0081 2.43164 20.2127 3.78687 21.5685L17.1401 34.9067C17.7971 35.5643 18.7285 35.92 19.5781 35.9487L93.7393 35.9487L93.7393 35.9481ZM42.5271 21.0039L42.5271 29.4576C42.5271 29.9673 42.0488 30.394 41.6272 30.394L37.547 30.394C37.1235 30.394 36.6732 29.9673 36.6459 29.4853L36.619 8.79138C36.619 8.2547 36.9735 7.828 37.6287 7.80035L41.5038 7.80035C42.0768 7.80035 42.5271 8.25409 42.5271 8.79138L42.5271 15.8406L47.1392 15.8406L47.1392 8.79138C47.1392 8.36469 47.4805 7.828 48.1761 7.80035L52.0656 7.80035C52.7065 7.80035 53.0479 8.25409 53.0479 8.79138L53.0752 29.4576C53.0752 30.022 52.6249 30.394 52.1198 30.394L48.0397 30.394C47.671 30.394 47.1117 29.9396 47.1117 29.4576L47.1117 21.0039L42.5271 21.0039ZM34.6809 24.06C36.3046 27.0482 34.3396 30.394 30.8193 30.394L30.8193 30.3934L20.2172 30.3934C19.6442 30.3652 19.3713 30.076 19.3439 29.5117L19.3439 26.7032C19.345 26.5746 19.3712 26.4476 19.4213 26.3293C19.4713 26.2111 19.5442 26.1041 19.6355 26.0144C19.7268 25.9248 19.835 25.8544 19.9535 25.8073C20.072 25.7601 20.1987 25.7372 20.3262 25.7398L27.0258 25.7398C27.5303 25.7398 27.6672 25.3401 27.4761 25.0511C25.252 22.2288 20.5715 17.6028 18.5791 14.0226C17.4879 12.0675 18.3879 7.82678 21.895 7.82678L32.0607 7.82678C32.5931 7.82678 32.9886 8.28113 33.0161 8.79083L33.0161 11.5861C33.0161 12.1781 32.7706 12.4257 32.1428 12.4534L26.2074 12.4534C25.5522 12.4534 25.47 12.9492 25.7023 13.1968C28.5679 16.6664 32.8796 20.8104 34.6809 24.06ZM55.4083 11.0356C55.1628 16.4069 55.1628 21.7869 55.4083 27.1582C55.4083 28.5765 56.9635 30.4216 58.6146 30.4216L68.6307 30.4216C70.3367 30.4216 71.756 28.7142 71.756 27.1582C72.0288 21.6644 72.0288 16.295 71.756 11.0079C71.715 9.61719 70.0632 7.82739 68.6307 7.82739L58.642 7.82739C56.8962 7.88269 55.4631 9.72778 55.4083 11.0356ZM87.9929 30.394L75.2345 30.394C74.7568 30.3664 74.2798 29.8567 74.2523 29.4576L74.2523 8.79138C74.2523 8.33704 74.7568 7.85443 75.262 7.82739L87.9656 7.82739C88.5797 7.82739 88.8929 8.17175 88.8929 8.76373L88.8929 11.5867C88.9204 12.0964 88.4707 12.4539 88.0471 12.4539L80.3921 12.4539L80.3921 16.405L85.4276 16.405C85.9321 16.4597 86.355 16.8593 86.3276 17.2861L86.3276 20.1498C86.355 20.5771 85.9874 21.0586 85.4818 21.0309L80.3921 21.0309L80.3921 25.7122L88.0204 25.7122C88.5516 25.7122 88.9478 26.1118 88.9478 26.6762L88.9478 29.4576C88.9478 30.1458 88.5516 30.3664 87.9929 30.394ZM95.361 30.3664L91.5953 30.3664C91.1445 30.3664 90.6942 30.022 90.6674 29.4853L90.6674 8.76373C90.6674 8.17175 91.0074 7.85443 91.6222 7.82739L95.3062 7.82739C95.8386 7.82739 96.2074 8.25409 96.2347 8.76373L96.2347 29.4853C96.2347 30.0496 95.8661 30.3664 95.361 30.3664ZM65.1648 25.961C64.0867 26.0157 63.0491 26.0157 62.0394 25.961C61.6714 25.9327 61.3032 25.589 61.2759 24.887C61.0573 21.0315 60.9619 17.1766 61.2759 13.308C61.3307 12.6331 61.6172 12.2887 62.0394 12.2334C63.0497 12.1234 64.114 12.1234 65.1648 12.2057C65.5061 12.2057 65.7788 12.6601 65.8057 13.3074C66.0647 17.1761 66.0647 21.0039 65.8057 24.8864C65.7788 25.4514 65.615 25.9333 65.1648 25.961Z" clip-rule="evenodd" fill="#9D9FA2" fill-opacity="1.000000" fill-rule="evenodd"/>
</svg>
