<svg width="122.247192" height="21.333313" viewBox="0 0 122.247 21.3333" fill="none" xmlns="http://www.w3.org/2000/svg" xmlns:xlink="http://www.w3.org/1999/xlink">
	<desc>
			Created with Pixso.
	</desc>
	<defs/>
	<path id="Vector" d="M73.6467 6.98242L83.1627 8.37231C87.1732 8.9624 89.661 10.8046 89.661 14.1799C89.661 19.0389 85.6504 21.3278 76.6979 21.3278C70.5734 21.3278 63.8798 20.4895 63.8519 14.6267L73.4515 14.6267C73.4794 15.294 73.7305 15.7408 74.2993 16.0496C74.8906 16.3309 75.7607 16.4688 77.0046 16.4688C79.4868 16.4688 80.1674 15.8015 80.1674 14.8528C80.1674 14.2682 79.7992 13.678 78.7283 13.5126L69.6362 12.1724C65.7428 11.5822 64.1309 9.34851 64.1309 6.55774C64.1309 1.39539 69.2457 0 75.7943 0C84.7747 0 88.4729 2.31647 88.7573 6.53571L79.4924 6.53571C79.4924 5.72491 79.0127 5.21753 78.2764 4.94177C77.5736 4.63843 76.67 4.52258 75.7943 4.52258C73.4236 4.52258 72.6074 5.11029 72.6036 5.94556C72.6036 6.50812 72.8547 6.86658 73.6467 6.98242ZM16.9178 7.64978L7.96533 7.64978L7.96533 0.694946L0 0.694946L0 20.6329L7.96533 20.6329L7.96533 12.6743L16.9178 12.6743L16.9178 20.6329L24.8776 20.6329L24.8776 0.694946L16.9178 0.694946L16.9178 7.64978ZM49.4915 12.757C49.4915 15.3271 47.991 16.1324 45.3973 16.1324C42.8036 16.1324 41.3031 15.3271 41.3031 12.757L41.3031 0.694946L33.3378 0.694946L33.3378 13.0659C33.3378 19.403 37.2089 21.3333 45.3973 21.3333C53.5857 21.3333 57.4568 19.403 57.4568 13.0659L57.4568 0.694946L49.4915 0.694946L49.4915 12.757ZM105.335 7.64978L114.282 7.64978L114.282 0.694946L122.247 0.694946L122.247 20.6329L114.282 20.6329L114.282 12.6743L105.335 12.6743L105.335 20.6329L97.3696 20.6329L97.3696 0.694946L105.335 0.694946L105.335 7.64978Z" fill="#9D9FA2" fill-opacity="1.000000" fill-rule="evenodd"/>
</svg>
