<svg width="120.449463" height="32.888916" viewBox="0 0 120.449 32.8889" fill="none" xmlns="http://www.w3.org/2000/svg" xmlns:xlink="http://www.w3.org/1999/xlink">
	<desc>
			Created with Pixso.
	</desc>
	<defs/>
	<path id="Vector" d="M81.8896 8.70819L86.6489 8.70819L86.6489 9.63055C89.5129 8.46021 92.2954 7.8996 94.5503 10.4391C95.8347 9.89557 97.0039 9.18555 98.2712 8.88995C101.96 8.01514 104.527 10.2489 104.067 14.0149C103.607 17.7808 102.879 21.5315 102.272 25.306L97.4482 25.306C97.7114 23.6243 97.9573 21.9935 98.239 20.3611C98.5342 18.5486 98.8481 16.7344 99.145 14.9254C99.1426 14.8973 99.1479 14.8691 99.1604 14.8438C99.3418 13.4747 98.8804 12.4368 97.959 12.1735C96.9546 11.8932 95.7041 12.4538 95.2595 13.6887C94.8149 14.9236 94.6487 16.2368 94.4111 17.5294C93.999 19.9534 93.6375 22.408 93.2083 24.8337C93.1665 24.954 93.0972 25.0627 93.0059 25.1512C92.9146 25.2397 92.8037 25.3055 92.6824 25.3434C91.2656 25.3926 89.8335 25.3586 88.3184 25.3586C88.6152 23.4799 88.9124 21.6505 89.2075 19.8209C89.4873 18.0577 89.8013 16.3098 90.0559 14.5551C90.2034 13.5987 89.7759 12.6593 89.0513 12.2975C88.3269 11.9357 87.3887 12.165 86.6641 12.8734C85.7427 13.7805 85.6936 14.9831 85.4951 16.1365C84.9861 19.1942 84.5076 22.2518 83.9968 25.3348L79.1902 25.3348C80.0962 19.7683 80.9854 14.2798 81.8896 8.70819ZM38.4932 23.6413C37.9841 26.8059 37.4885 29.8228 36.978 32.8889L32.1543 32.8889C33.4707 24.8116 34.7722 16.7854 36.0889 8.72516L40.9126 8.72516C40.8633 9.13623 40.7971 9.51508 40.7649 9.8446C41.7524 9.46582 42.7078 8.93921 43.7273 8.72516C47.1853 7.98285 50.0493 9.79535 51.0232 13.208C52.4214 18.1019 48.9617 23.9539 43.9751 25.0665C41.9663 25.4877 40.1558 25.075 38.4932 23.6413ZM46.1638 16.5204C46.1809 14.6519 45.4734 13.422 44.2974 12.977C43.1216 12.5319 41.7627 13.0262 40.7581 14.2459C40.2903 14.8007 39.9395 15.4446 39.7273 16.1389C39.5149 16.8333 39.4456 17.5634 39.5229 18.2853C39.6384 19.505 40.1489 20.5259 41.3894 20.954C42.5769 21.3668 43.595 20.9217 44.4688 20.1148C45.4827 19.1855 46.0913 17.8947 46.1638 16.5204ZM0 21.2343C1.10278 20.3119 2.17358 19.4218 3.24414 18.5164C3.72095 19.0616 4.13306 19.6205 4.62695 20.0825C5.8147 21.2206 7.21094 21.236 8.69897 20.7263C10.1311 20.2321 11.0522 19.2757 11.3152 17.7418C11.4849 16.7039 11.1846 15.8307 10.2786 15.2532C9.63721 14.8421 8.94507 14.5109 8.26978 14.149C7.85913 13.935 7.43164 13.7363 7.01929 13.5392C1.21826 10.7025 2.17358 4.34259 6.35596 1.40558C9.13843 -0.539429 12.0195 -0.293091 14.9175 1.09302C15.5417 1.39026 16.1187 1.80133 16.7837 2.19714C15.8455 3.36755 14.9734 4.45471 14.1165 5.50958C13.3428 5.16986 12.6184 4.76898 11.8447 4.5379C10.0173 3.97736 8.37158 4.73499 7.53174 6.45062C6.97168 7.60406 7.21777 8.64197 8.32056 9.28577C9.42358 9.92957 10.5603 10.4222 11.6631 11.015C13.7212 12.1208 15.2261 13.6853 15.5486 16.111C16.0576 19.8362 14.1912 23.0654 10.7417 24.6044C6.65112 26.3948 2.47217 25.1242 0 21.2343ZM19.2305 8.70819L24.071 8.70819C23.4941 12.2346 22.9512 15.7305 22.3745 19.2077C22.1436 20.6091 22.5439 21.1527 23.9387 21.2682C25.6829 21.416 26.4839 20.7586 26.7537 19.0599C27.2966 15.6303 27.8733 12.2024 28.4502 8.70819L33.2739 8.70819C32.9448 10.801 32.6157 12.8615 32.2695 14.939C32.0388 16.3726 31.791 17.8063 31.5452 19.24C31.0022 22.4539 28.8608 24.6146 25.6677 25.1412C23.8557 25.4385 22.0623 25.4538 20.3164 24.8015C18.1921 23.9946 17.074 22.0004 17.4521 19.7411C18.0444 16.1093 18.6213 12.4504 19.2305 8.70819ZM78.7625 17.7248L68.4126 17.7248C68.282 19.4387 69.105 21.1527 70.3401 21.5485C72.3982 22.228 73.4673 20.8401 74.4717 19.3555C75.6084 19.7853 76.7283 20.2048 77.8464 20.6245C76.4636 23.5598 72.332 26.4764 68.2158 25.1089C65.3179 24.1526 63.9351 21.895 63.655 18.9597C63.2141 14.4276 66.5786 9.82935 70.9746 8.8407C74.7939 7.99133 78.1536 10.1996 78.7285 14.1066C78.8933 15.2515 78.7625 16.4711 78.7625 17.7248ZM68.8503 14.7572L74.811 14.7572C74.3171 12.8886 73.345 11.9051 72.0962 11.8898C70.7288 11.8728 69.395 13.0432 68.8503 14.7572ZM116.053 19.3555C117.188 19.7853 118.291 20.2048 119.395 20.6091C117.436 24.6299 111.674 27.1694 107.771 24.0201C105.531 22.2076 104.858 19.7343 105.302 16.9995C105.911 13.1248 108.051 10.3236 111.821 9.03772C116.151 7.55481 120.135 10.3066 120.415 14.8897C120.481 15.8121 120.432 16.7344 120.432 17.7248L109.977 17.7248C109.797 19.3402 110.669 21.0372 111.887 21.5485C113.204 22.1243 114.341 21.5485 116.053 19.3555ZM116.283 14.8065C116.2 13.2776 114.999 11.9187 113.698 11.8728C112.282 11.8235 110.62 13.3235 110.474 14.8065L116.283 14.8065ZM64.2744 8.69122C63.8469 10.1418 63.4514 11.4771 63.0393 12.8784C62.8623 12.8546 62.6868 12.8217 62.5132 12.7799C60.2244 12.0699 58.2495 13.2402 57.8201 15.6303C57.2942 18.5486 56.8496 21.4653 56.3711 24.3836C56.322 24.6792 56.2559 24.9764 56.2014 25.306L51.3999 25.306C52.3059 19.7513 53.1951 14.2459 54.0994 8.70819L58.8738 8.70819C58.8586 9.08698 58.8247 9.4505 58.7925 9.8786C60.4551 8.62494 62.2825 8.46021 64.2744 8.69122Z" fill="#9D9FA2" fill-opacity="1.000000" fill-rule="nonzero"/>
</svg>
