<svg width="120.449463" height="15.111145" viewBox="0 0 120.449 15.1111" fill="none" xmlns="http://www.w3.org/2000/svg" xmlns:xlink="http://www.w3.org/1999/xlink">
	<desc>
			Created with Pixso.
	</desc>
	<defs/>
	<path id="Vector" d="M93.5127 7.17737L88.7156 7.17737C88.7156 7.17737 88.6482 4.95129 86.4233 4.95129C84.2129 4.95129 84.2534 7.11023 84.2534 8.01422L84.2534 15.0966L78.6909 15.0966L78.6909 6.36823C78.6909 6.36823 78.8389 0.0270996 86.5305 0.0270996C86.5305 0.0270996 91.9045 -0.647766 94.1956 4.73535C94.1956 4.73535 95.8044 0.0270996 102.331 0.0270996L108.468 0.0270996C108.468 0.0270996 115.987 -0.0268555 115.987 7.0694L109.957 7.0694C109.957 7.0694 109.782 5.31537 107.637 5.31537L102.988 5.31537C102.988 5.31537 99.9319 5.09943 99.9319 7.5816C99.9319 10.0638 101.648 10.2126 103.417 10.2126L120.449 10.2126L120.449 15.0959L102.157 15.0959C102.157 15.0959 93.5127 15.8248 93.5127 7.17737ZM62.5427 10.2396L69.4844 10.2396L69.4844 15.0959L61.2695 15.0959C61.2695 15.0959 53.5103 14.7595 53.5103 7.95953C53.5103 1.14636 60.1301 0.0270996 62.824 0.0270996L76.0769 0.0270996L76.0769 15.0966L70.3281 15.0966L70.3281 5.36938L62.3682 5.36938C62.3682 5.36938 59.8765 5.32922 59.8765 7.75745C59.8765 10.1718 62.1008 10.2396 62.5427 10.2396ZM7.74609 5.34241L0 5.34241L0 0.0270996L11.1633 0.0270996C11.1633 0.0270996 14.5276 0.189087 14.5276 3.35931L14.5276 7.8924L23.2781 0.0270996L26.6011 0.0270996C26.6011 0.0270996 29.7771 0.00012207 29.7771 3.50812L29.7771 7.98724L38.6218 0.0270996L42.1333 0.0270996C42.1333 0.0270996 45.3496 0.189087 45.3496 3.89917L45.3496 9.53839C45.3496 9.53839 45.3496 10.0645 45.9258 10.0645L52.8545 10.0645L52.8545 15.0966L43.3799 15.0966C43.3799 15.0966 39.2256 15.5023 39.2256 11.2253L39.2256 8.20251C39.2256 8.20251 39.1987 7.50134 38.5283 8.17548L30.9707 15.0959L27.6333 15.0959C27.6333 15.0959 23.7869 15.2309 23.7869 11.2516L23.7869 7.8924C23.7869 7.8924 23.8542 7.25769 23.3311 7.8114L15.4653 15.0959L12.2222 15.0959C12.2222 15.0959 8.61719 15.4476 8.61719 11.4267L8.61719 6.04358C8.61719 6.04425 8.71069 5.34241 7.74609 5.34241Z" fill="#9D9FA2" fill-opacity="1.000000" fill-rule="evenodd"/>
</svg>
